<svg xmlns="http://www.w3.org/2000/svg" width="26.4583mm" height="28.531mm" viewBox="0 0 75 80.8752"><defs><style>

path {
fill:#6366f1;
}
@media ( prefers-color-scheme: dark ) {
			path {
				fill: #fff;
			}

</style></defs><path class="a" d="M64.4276,0H16.0968A10.5724,10.5724,0,0,0,5.5244,10.5724V60.0942A70.4921,70.4921,0,0,1,0,80.8752S10.888,76.27,20.8889,75.5169H64.4276A10.5723,10.5723,0,0,0,75,64.9446V10.5724A10.5724,10.5724,0,0,0,64.4276,0Zm3.0207,57.3929A10.5723,10.5723,0,0,1,56.8759,67.9652H23.6485A10.5723,10.5723,0,0,1,13.0761,57.3929V18.1241A10.5724,10.5724,0,0,1,23.6485,7.5517H56.8759A10.5724,10.5724,0,0,1,67.4483,18.1241Z"/><path class="a" d="M60.6588,34.0854,45.99,34a4.01,4.01,0,0,0-2.4092.8015H36.3385A4.01,4.01,0,0,0,33.9294,34l-14.625.0854A5.41,5.41,0,0,0,18.3174,34v2.2242a1.997,1.997,0,0,1,1.0371.2058.7948.7948,0,0,1,.2833.2942,3.1429,3.1429,0,0,1,.3144,1.0743c.0792.4937.129,1.0946.2252,1.7421l.0059-.0009c.1408,1.1108.3419,2.3893.5082,3.2382a5.794,5.794,0,0,0,5.6844,4.6775h5.0864A5.7852,5.7852,0,0,0,36.9988,43.35l.0173-.057.8029-4.1992-.0023,0c.01-.0364.0157-.073.0246-.11l.0162.0049h0a2.9221,2.9221,0,0,1,.4486-.7925,2.1752,2.1752,0,0,1,2.5118-.6237,2.9887,2.9887,0,0,1,.7952.6237,2.1151,2.1151,0,0,1,.4485.7923l.0161-.0049c.0089.0366.0147.0732.0247.11l-.0024,0,.803,4.2.0172.0567a5.7853,5.7853,0,0,0,5.5366,4.1053h5.0864a5.794,5.794,0,0,0,5.6844-4.6778c.1663-.8486.3672-2.1269.5081-3.2376l.006.0009,0,0c.0858-.5758.1341-1.1141.2-1.5739a5.4943,5.4943,0,0,1,.1814-.8735,1.6985,1.6985,0,0,1,.1792-.4031.7806.7806,0,0,1,.35-.3069,2.25,2.25,0,0,1,.95-.1592V34A5.3529,5.3529,0,0,0,60.6588,34.0854ZM31.4623,45.2312H26.3759a3.57,3.57,0,0,1-3.502-2.8825c-.2091-1.0572-.5066-3.0594-.604-4.1609l-.0074-.1624a1.7883,1.7883,0,0,1,.53-1.2674,1.8189,1.8189,0,0,1,.7632-.4483l.524-.0855h9.85a1.7844,1.7844,0,0,1,1.2915.5407,1.7981,1.7981,0,0,1,.4415,1.7975l-.017.056-.7872,4.117A3.5591,3.5591,0,0,1,31.4623,45.2312Zm22.0809,0H48.4568a3.5589,3.5589,0,0,1-3.3959-2.4958l-.7874-4.1174-.0171-.0564a1.7971,1.7971,0,0,1,.4417-1.7967,1.7844,1.7844,0,0,1,1.2915-.5407h9.85l.5239.0855a1.8192,1.8192,0,0,1,.7631.4483,1.7885,1.7885,0,0,1,.53,1.2674l-.0073.1629c-.0974,1.101-.3948,3.1032-.6039,4.16A3.57,3.57,0,0,1,53.5432,45.2312Z"/></svg>